<?xml version="1.0" encoding="UTF-8"?>
<svg version="1.1" xmlns="http://www.w3.org/2000/svg" width="244" height="58">
<path d="M0 0 C80.52 0 161.04 0 244 0 C244 19.14 244 38.28 244 58 C163.48 58 82.96 58 0 58 C0 38.86 0 19.72 0 0 Z " fill="#FBFBFB" transform="translate(0,0)"/>
<path d="M0 0 C2.97 0 5.94 0 9 0 C9.33 5.94 9.66 11.88 10 18 C11.155 16.700625 12.31 15.40125 13.5 14.0625 C16.4126266 11.10322991 18.1832647 9.51870098 22.375 9.25 C24.169375 9.12625 24.169375 9.12625 26 9 C27.33333333 7.16666667 27.33333333 7.16666667 28 5 C32.05249301 1.47040931 35.56571164 0.70225311 40.9375 0.78125 C45.00716024 1.21288063 47.88708922 2.9983803 50.875 5.6875 C52.54456477 9.11938313 52.63561635 12.30771174 52 16 C49.52739072 20.85011821 46.22836759 23.73262505 42 27 C42.67546875 27 43.3509375 27 44.046875 27 C48.03125 27 52.015625 27 56 27 C56.33 27.33 56.66 27.66 57 28 C59.5 28.16666667 59.5 28.16666667 62 28 C63.51421001 26.48578999 63.21309856 25.07527232 63.31640625 22.96484375 C63.37924805 21.75151367 63.37924805 21.75151367 63.44335938 20.51367188 C63.48267578 19.66353516 63.52199219 18.81339844 63.5625 17.9375 C63.62727539 16.65649414 63.62727539 16.65649414 63.69335938 15.34960938 C63.79976702 13.23327963 63.90041731 11.11666187 64 9 C60.37 9 56.74 9 53 9 C53 6.69 53 4.38 53 2 C59.93 2 66.86 2 74 2 C74.495 8.435 74.495 8.435 75 15 C75.94875 14.195625 76.8975 13.39125 77.875 12.5625 C81.5030028 9.48658459 83.86489811 8.66231659 88.765625 8.70703125 C93.49184016 9.32672729 97.66002208 11.66002208 101 15 C101.33 10.05 101.66 5.1 102 0 C104.97 0 107.94 0 111 0 C111.495 5.445 111.495 5.445 112 11 C112.99 10.34 113.98 9.68 115 9 C120.24650072 8.5050471 123.50135039 9.27988628 128 12 C128.99 12.99 128.99 12.99 130 14 C131.175625 13.0409375 131.175625 13.0409375 132.375 12.0625 C136.91051016 8.49888487 140.37908617 8.59514356 146 9 C149.5625 10 149.5625 10 152 11 C151.67 12.65 151.34 14.3 151 16 C146.9472484 16.98248524 143.16138263 17.08159574 139 17 C138.67 17.66 138.34 18.32 138 19 C138.66386719 19.02578125 139.32773438 19.0515625 140.01171875 19.078125 C144.1767646 19.34566079 147.35902815 19.67951408 151.125 21.5625 C153.41303957 24.53695144 153.59255746 26.33894207 153.6640625 30 C152.60223443 33.19797629 150.8308487 34.26791737 148 36 C144.625 36.4609375 144.625 36.4609375 141 36.375 C139.80375 36.36210938 138.6075 36.34921875 137.375 36.3359375 C134.17969793 36.0178866 131.88364518 35.3653623 129 34 C129.99 32.02 130.98 30.04 132 28 C132.495 28.165 132.99 28.33 133.5 28.5 C137.03444089 29.20688818 140.39690701 29.06005155 144 29 C144.33 28.34 144.66 27.68 145 27 C140.71 26.34 136.42 25.68 132 25 C131.4225 26.258125 130.845 27.51625 130.25 28.8125 C128.70188735 32.18517398 127.25125227 34.13213514 124 36 C121.52734375 36.29296875 121.52734375 36.29296875 118.9375 36.1875 C117.65166016 36.14689453 117.65166016 36.14689453 116.33984375 36.10546875 C115.56769531 36.07066406 114.79554688 36.03585938 114 36 C113.01 36 112.02 36 111 36 C108 36 105 36 102 36 C101.505 33.03 101.505 33.03 101 30 C99.8553125 31.2065625 99.8553125 31.2065625 98.6875 32.4375 C94.37870271 36.54588811 90.42804687 36.33425037 84.734375 36.2890625 C80.94970345 35.88896865 78.80442711 34.51679356 76 32 C75.01 30.515 75.01 30.515 74 29 C73.278125 29.94875 72.55625 30.8975 71.8125 31.875 C69.55614469 34.84049555 67.5434099 35.86148592 64 37 C60.86206055 37.13525391 60.86206055 37.13525391 57.38671875 36.9765625 C56.13955078 36.925 54.89238281 36.8734375 53.60742188 36.8203125 C52.31384766 36.75585938 51.02027344 36.69140625 49.6875 36.625 C48.37458984 36.56828125 47.06167969 36.5115625 45.70898438 36.453125 C42.47221371 36.3118841 39.23603322 36.15723339 36 36 C36 40.62 36 45.24 36 50 C29.73 50 23.46 50 17 50 C16.6875 41.25 16.6875 41.25 16.61206055 38.51269531 C16.34671401 32.68440853 16.34671401 32.68440853 13 28 C12.01 28.33 11.02 28.66 10 29 C9.67 31.31 9.34 33.62 9 36 C6.03 36 3.06 36 0 36 C0 24.12 0 12.24 0 0 Z " fill="#060606" transform="translate(81,5)"/>
<path d="M0 0 C2.97 0 5.94 0 9 0 C9.33 5.94 9.66 11.88 10 18 C11.051875 16.68 12.10375 15.36 13.1875 14 C15.99115733 11.13067142 17.41718463 10.09037958 21.42578125 9.46875 C24.65043004 9.49694365 27.79530475 9.64826516 31 10 C31 10.66 31 11.32 31 12 C31.721875 11.505 32.44375 11.01 33.1875 10.5 C36.17466883 8.90684329 37.68000099 8.55135149 41 9 C43 11 43 11 43 13.3125 C41.56352136 17.17303634 39.28057755 18.55701672 36 21 C36 19.68 36 18.36 36 17 C33.69 17 31.38 17 29 17 C29 18.98 29 20.96 29 23 C29.99 23 30.98 23 32 23 C31.33269595 28.60085533 30.07988967 33.88440343 28.5625 39.3125 C28.34529297 40.12267578 28.12808594 40.93285156 27.90429688 41.76757812 C27.68966797 42.54166016 27.47503906 43.31574219 27.25390625 44.11328125 C27.06127197 44.81235596 26.8686377 45.51143066 26.67016602 46.23168945 C26 48 26 48 24 50 C20.375 50.125 20.375 50.125 17 50 C16.96261719 48.74703125 16.92523438 47.4940625 16.88671875 46.203125 C16.82105115 44.55205379 16.75460407 42.90101345 16.6875 41.25 C16.66494141 40.425 16.64238281 39.6 16.61914062 38.75 C16.38451083 32.79314143 16.38451083 32.79314143 13 28 C12.01 28.33 11.02 28.66 10 29 C9.67 31.31 9.34 33.62 9 36 C6.03 36 3.06 36 0 36 C0 24.12 0 12.24 0 0 Z " fill="#080808" transform="translate(81,5)"/>
<path d="M0 0 C0.33 0 0.66 0 1 0 C1 11.88 1 23.76 1 36 C0.67 36 0.34 36 0 36 C-0.33 34.02 -0.66 32.04 -1 30 C-1.763125 30.804375 -2.52625 31.60875 -3.3125 32.4375 C-7.62057882 36.54520306 -11.57517249 36.34142816 -17.26953125 36.28125 C-21.11535443 35.88511371 -23.18370077 34.60507679 -26 32 C-28.72259818 28.22310013 -29.36419265 25.67252244 -29.29296875 21.04296875 C-29.28330078 19.93115234 -29.27363281 18.81933594 -29.26367188 17.67382812 C-29.23853516 16.52333984 -29.21339844 15.37285156 -29.1875 14.1875 C-29.17396484 13.01767578 -29.16042969 11.84785156 -29.14648438 10.64257812 C-29.11120278 7.761248 -29.0619028 4.88086096 -29 2 C-28.67 2 -28.34 2 -28 2 C-27.67 6.29 -27.34 10.58 -27 15 C-26.05125 14.195625 -25.1025 13.39125 -24.125 12.5625 C-20.4969972 9.48658459 -18.13510189 8.66231659 -13.234375 8.70703125 C-8.50815984 9.32672729 -4.33997792 11.66002208 -1 15 C-0.67 10.05 -0.34 5.1 0 0 Z " fill="#0D0D0D" transform="translate(183,5)"/>
<path d="M0 0 C2.97 0 5.94 0 9 0 C9 8.91 9 17.82 9 27 C13.95 27 18.9 27 24 27 C24 20.73 24 14.46 24 8 C26.97 8 29.94 8 33 8 C33 16.58 33 25.16 33 34 C22.11 34 11.22 34 0 34 C0 22.78 0 11.56 0 0 Z " fill="#000000" transform="translate(18,7)"/>
<path d="M0 0 C0.75925781 0.04382812 1.51851562 0.08765625 2.30078125 0.1328125 C6.01483866 1.2877567 7.42169133 2.69889276 9.6875 5.875 C10.28877597 9.5012712 10.15989316 13.02471679 10 16.6875 C9.97744141 17.66654297 9.95488281 18.64558594 9.93164062 19.65429688 C9.87291964 22.0618573 9.78324426 24.46862754 9.6875 26.875 C6.7175 26.875 3.7475 26.875 0.6875 26.875 C0.62691406 25.65941406 0.56632812 24.44382812 0.50390625 23.19140625 C0.41951668 21.60675772 0.3348679 20.02212298 0.25 18.4375 C0.21068359 17.63505859 0.17136719 16.83261719 0.13085938 16.00585938 C0.2820704 12.12260439 0.2820704 12.12260439 -1.3125 8.875 C-3.77042029 8.54156449 -3.77042029 8.54156449 -6.3125 8.875 C-8.71369059 12.47678588 -8.75021322 15.38366369 -8.9375 19.5625 C-8.99550781 20.6153418 -8.99550781 20.6153418 -9.0546875 21.68945312 C-9.1487334 23.41754655 -9.2316968 25.14623675 -9.3125 26.875 C-12.2825 26.875 -15.2525 26.875 -18.3125 26.875 C-18.3125 18.295 -18.3125 9.715 -18.3125 0.875 C-14.3125 0.875 -10.3125 0.875 -6.3125 0.875 C-3.91534579 -0.32357711 -2.65450348 -0.20522212 0 0 Z " fill="#050505" transform="translate(70.3125,14.125)"/>
<path d="M0 0 C0.33 0 0.66 0 1 0 C1 2.31 1 4.62 1 7 C4.63 7 8.26 7 12 7 C12.05379226 9.95857409 12.09357093 12.91617721 12.125 15.875 C12.14175781 16.71675781 12.15851563 17.55851562 12.17578125 18.42578125 C12.18222656 19.23144531 12.18867188 20.03710938 12.1953125 20.8671875 C12.20578613 21.61081543 12.21625977 22.35444336 12.22705078 23.12060547 C12 25 12 25 10 27 C6.38245897 27.38079379 4.11598788 26.84651134 1 25 C0.67 25.33 0.34 25.66 0 26 C-1.85287502 26.07226502 -3.70833878 26.0838122 -5.5625 26.0625 C-6.57441406 26.05347656 -7.58632812 26.04445313 -8.62890625 26.03515625 C-9.41136719 26.02355469 -10.19382812 26.01195313 -11 26 C-10.2575 25.278125 -9.515 24.55625 -8.75 23.8125 C-3.32167435 18.70572244 -3.32167435 18.70572244 -0.9375 12.01171875 C-0.958125 11.24472656 -0.97875 10.47773438 -1 9.6875 C-1.043568 6.31098014 -0.84918868 3.29060612 0 0 Z " fill="#F1F1F1" transform="translate(133,7)"/>
<path d="M0 0 C2 2 2 2 2 4.3125 C0.56352136 8.17303634 -1.71942245 9.55701672 -5 12 C-5 10.68 -5 9.36 -5 8 C-7.31 8 -9.62 8 -12 8 C-12 9.98 -12 11.96 -12 14 C-11.01 14 -10.02 14 -9 14 C-9.66145685 19.66419943 -10.98755972 24.96270761 -12.5625 30.4375 C-12.91344727 31.67790039 -12.91344727 31.67790039 -13.27148438 32.94335938 C-13.84363015 34.96338426 -14.42125204 36.98185676 -15 39 C-15.33 39 -15.66 39 -16 39 C-15.67 33.39 -15.34 27.78 -15 22 C-16.65 22.33 -18.3 22.66 -20 23 C-20.26404456 16.13484138 -19.25841946 9.74153283 -18 3 C-15.36 2.34 -12.72 1.68 -10 1 C-10 1.66 -10 2.32 -10 3 C-8.9171875 2.2575 -8.9171875 2.2575 -7.8125 1.5 C-4.82533117 -0.09315671 -3.31999901 -0.44864851 0 0 Z " fill="#F1F1F1" transform="translate(122,14)"/>
<path d="M0 0 C2 2 2 2 2.3125 5.4375 C2 9 2 9 0.8125 10.9375 C-1.68780874 12.40319823 -3.15130656 12.49852135 -6 12 C-8.2855347 9.87208838 -8.92303658 8.52591672 -9.375 5.4375 C-9 3 -9 3 -7.875 1.1875 C-5.16554166 -0.52849028 -3.13704316 -0.333728 0 0 Z " fill="#F5F5F5" transform="translate(201,22)"/>
<path d="M0 0 C3 0.25 3 0.25 5 2.25 C5.30078125 4.125 5.30078125 4.125 5.3125 6.25 C5.32925781 6.95125 5.34601563 7.6525 5.36328125 8.375 C5.18345703 9.303125 5.18345703 9.303125 5 10.25 C1.77626323 12.39915785 0.73296326 12.63286803 -3 12.25 C-5 10.25 -5 10.25 -5.265625 8.375 C-5.26046875 7.67375 -5.2553125 6.9725 -5.25 6.25 C-5.25515625 5.54875 -5.2603125 4.8475 -5.265625 4.125 C-4.77431879 0.65695617 -3.28862917 0.27405243 0 0 Z " fill="#F9F9F9" transform="translate(169,21.75)"/>
<path d="M0 0 C3.375 0.6875 3.375 0.6875 4.375 1.6875 C4.67073841 4.49701486 4.75743085 6.10378976 3.1875 8.5 C0.72592224 10.11275784 -0.73565736 10.1209014 -3.625 9.6875 C-5.4375 8.5 -5.4375 8.5 -6.625 6.6875 C-7 4.125 -7 4.125 -6.625 1.6875 C-3.625 -0.3125 -3.625 -0.3125 0 0 Z " fill="#0E0E0E" transform="translate(47.625,2.3125)"/>
<path d="M0 0 C4.29 0.99 8.58 1.98 13 3 C12.67 3.99 12.34 4.98 12 6 C3.42857143 6.14285714 3.42857143 6.14285714 0 5 C-0.99 6.32 -1.98 7.64 -3 9 C-2.41321669 5.47930015 -1.64350079 3.28700157 0 0 Z " fill="#D2D2D2" transform="translate(213,29)"/>
</svg>
